<svg width="365" height="77" viewBox="0 0 365 77" fill="none" xmlns="http://www.w3.org/2000/svg">
<path d="M337.875 75.8182C334.723 75.8182 332.095 75.3864 329.989 74.5227C327.898 73.6743 326.307 72.5152 325.216 71.0455C324.14 69.5758 323.549 67.9243 323.443 66.0909L332.625 64.8864C332.792 65.5985 333.11 66.2576 333.58 66.8637C334.064 67.4697 334.754 67.9546 335.648 68.3182C336.557 68.6818 337.731 68.8637 339.17 68.8637C341.277 68.8637 343.11 68.3485 344.67 67.3182C346.231 66.3031 347.193 64.5985 347.557 62.2046L348.602 55.8182H348.193C347.617 56.7879 346.83 57.7046 345.83 58.5682C344.845 59.4318 343.64 60.1364 342.216 60.6818C340.807 61.2273 339.178 61.5 337.33 61.5C334.693 61.5 332.405 60.894 330.466 59.6818C328.542 58.4546 327.148 56.5834 326.284 54.0682C325.436 51.5379 325.33 48.3409 325.966 44.4773C326.633 40.5227 327.83 37.2197 329.557 34.5682C331.284 31.9167 333.33 29.9318 335.693 28.6137C338.057 27.2955 340.519 26.6364 343.08 26.6364C345.034 26.6364 346.61 26.9697 347.807 27.6364C349.019 28.2879 349.951 29.1061 350.602 30.0909C351.254 31.0606 351.716 32.0152 351.989 32.9546H352.375L353.33 27.0909H362.943L357.08 62.3409C356.61 65.3258 355.481 67.8106 353.693 69.7955C351.92 71.7955 349.67 73.2955 346.943 74.2955C344.216 75.3106 341.193 75.8182 337.875 75.8182ZM341.511 54.2273C343.057 54.2273 344.443 53.8409 345.67 53.0682C346.913 52.2803 347.951 51.1591 348.784 49.7046C349.617 48.2349 350.201 46.4773 350.534 44.4318C350.867 42.3864 350.86 40.6137 350.511 39.1137C350.178 37.5985 349.527 36.4243 348.557 35.5909C347.602 34.7576 346.345 34.3409 344.784 34.3409C343.178 34.3409 341.769 34.7727 340.557 35.6364C339.345 36.4849 338.337 37.6667 337.534 39.1818C336.746 40.697 336.193 42.447 335.875 44.4318C335.542 46.447 335.527 48.1894 335.83 49.6591C336.148 51.1137 336.777 52.2424 337.716 53.0455C338.655 53.8334 339.92 54.2273 341.511 54.2273Z" fill="#0F4C75"/>
<path d="M297.608 41.8182L294.244 62H284.585L290.403 27.0909H299.608L298.608 33.25H298.994C300.1 31.2046 301.661 29.5909 303.676 28.4091C305.706 27.2273 308.017 26.6364 310.608 26.6364C313.032 26.6364 315.055 27.1667 316.676 28.2273C318.312 29.2879 319.464 30.7955 320.131 32.75C320.812 34.7046 320.926 37.0455 320.472 39.7727L316.744 62H307.062L310.494 41.5C310.843 39.3637 310.57 37.697 309.676 36.5C308.797 35.2879 307.381 34.6818 305.426 34.6818C304.123 34.6818 302.926 34.9621 301.835 35.5227C300.744 36.0834 299.828 36.9015 299.085 37.9773C298.358 39.0379 297.866 40.3182 297.608 41.8182Z" fill="#0F4C75"/>
<path d="M267.08 62L272.898 27.0909H282.58L276.761 62H267.08ZM278.739 22.5455C277.299 22.5455 276.11 22.0682 275.17 21.1136C274.246 20.1439 273.867 18.9924 274.034 17.6591C274.201 16.2955 274.852 15.144 275.989 14.2046C277.125 13.25 278.413 12.7727 279.852 12.7727C281.292 12.7727 282.466 13.25 283.375 14.2046C284.284 15.144 284.663 16.2955 284.511 17.6591C284.36 18.9924 283.716 20.1439 282.58 21.1136C281.458 22.0682 280.178 22.5455 278.739 22.5455Z" fill="#0F4C75"/>
<path d="M211.426 62L205.835 15.4546H216.585H223H228H233.176H242.381L245.517 47.8637H245.926L258.972 15.4546H269.722L248.676 62H239.085L235.312 31.5682H234.949L221.017 62H211.426Z" fill="#0F4C75"/>
<path d="M173.506 62.6591C171.294 62.6591 169.377 62.2727 167.756 61.5C166.15 60.7121 164.968 59.5455 164.21 58C163.453 56.4546 163.263 54.5379 163.642 52.25C163.975 50.3106 164.604 48.6894 165.528 47.3864C166.468 46.0682 167.612 45.0076 168.96 44.2046C170.309 43.4015 171.801 42.7879 173.438 42.3637C175.089 41.9394 176.794 41.6515 178.551 41.5C180.581 41.2879 182.233 41.0833 183.506 40.8864C184.794 40.6894 185.756 40.4091 186.392 40.0455C187.028 39.6667 187.415 39.1061 187.551 38.3637V38.2273C187.778 36.803 187.513 35.697 186.756 34.9091C186.013 34.1061 184.824 33.7046 183.188 33.7046C181.46 33.7046 179.991 34.0834 178.778 34.8409C177.581 35.5985 176.725 36.5606 176.21 37.7273L167.392 37C168.18 34.8788 169.369 33.0455 170.96 31.5C172.566 29.9394 174.498 28.7424 176.756 27.9091C179.013 27.0606 181.544 26.6364 184.347 26.6364C186.286 26.6364 188.097 26.8637 189.778 27.3182C191.475 27.7727 192.938 28.4773 194.165 29.4318C195.407 30.3864 196.301 31.6137 196.847 33.1137C197.407 34.5985 197.521 36.3788 197.188 38.4546L193.256 62H184.074L184.892 57.1591H184.619C183.877 58.25 182.968 59.2121 181.892 60.0455C180.816 60.8637 179.581 61.5076 178.188 61.9773C176.794 62.4318 175.233 62.6591 173.506 62.6591ZM177.392 55.9773C178.801 55.9773 180.097 55.697 181.278 55.1364C182.475 54.5606 183.46 53.7879 184.233 52.8182C185.021 51.8485 185.521 50.75 185.733 49.5227L186.324 45.8182C186.021 46.0152 185.581 46.1894 185.006 46.3409C184.445 46.4924 183.831 46.6364 183.165 46.7727C182.513 46.894 181.854 47.0076 181.188 47.1137C180.521 47.2046 179.922 47.2955 179.392 47.3864C178.225 47.553 177.18 47.8182 176.256 48.1818C175.331 48.5455 174.581 49.0379 174.006 49.6591C173.43 50.2652 173.074 51.0227 172.938 51.9318C172.725 53.25 173.036 54.2576 173.869 54.9546C174.718 55.6364 175.892 55.9773 177.392 55.9773Z" fill="#3282B8"/>
<path d="M163.153 27.0909L161.949 34.3637H140.903L142.131 27.0909H163.153ZM148.267 18.7273H157.949L152.54 51.2728C152.388 52.1667 152.411 52.8637 152.608 53.3637C152.805 53.8485 153.131 54.1894 153.585 54.3864C154.055 54.5834 154.616 54.6818 155.267 54.6818C155.722 54.6818 156.184 54.644 156.653 54.5682C157.123 54.4773 157.479 54.4091 157.722 54.3637L158.085 61.5682C157.54 61.7349 156.805 61.9167 155.881 62.1137C154.972 62.3106 153.896 62.4318 152.653 62.4773C150.29 62.5682 148.29 62.2576 146.653 61.5455C145.017 60.8182 143.843 59.7046 143.131 58.2046C142.419 56.7046 142.267 54.8182 142.676 52.5455L148.267 18.7273Z" fill="#3282B8"/>
<path d="M138.739 15.4546L131.011 62H121.33L129.057 15.4546H138.739Z" fill="#3282B8"/>
<path d="M98.8352 62.6818C95.2595 62.6818 92.2973 61.9546 89.9489 60.5C87.6004 59.0303 85.9489 56.9546 84.9943 54.2727C84.0549 51.5758 83.8958 48.3864 84.517 44.7046C85.1231 41.1137 86.3428 37.9621 88.1761 35.25C90.0246 32.5379 92.3428 30.4243 95.1307 28.9091C97.9186 27.394 101.025 26.6364 104.449 26.6364C106.752 26.6364 108.835 27.0076 110.699 27.75C112.578 28.4773 114.138 29.5834 115.381 31.0682C116.623 32.5379 117.472 34.3788 117.926 36.5909C118.396 38.803 118.388 41.394 117.903 44.3637L117.472 47.0227H88.017L88.9489 41.0227H109.312C109.54 39.6288 109.449 38.394 109.04 37.3182C108.631 36.2424 107.949 35.4015 106.994 34.7955C106.04 34.1743 104.866 33.8637 103.472 33.8637C102.047 33.8637 100.714 34.2121 99.4716 34.9091C98.2292 35.6061 97.1837 36.5227 96.3352 37.6591C95.5019 38.7803 94.964 40 94.7216 41.3182L93.6534 47.2727C93.3504 49.1061 93.411 50.6288 93.8352 51.8409C94.2746 53.053 95.0322 53.9621 96.108 54.5682C97.1837 55.1591 98.5474 55.4546 100.199 55.4546C101.275 55.4546 102.282 55.303 103.222 55C104.176 54.697 105.025 54.25 105.767 53.6591C106.509 53.0531 107.116 52.3031 107.585 51.4091L116.426 52C115.608 54.1515 114.366 56.0303 112.699 57.6364C111.032 59.2273 109.025 60.4697 106.676 61.3637C104.343 62.2424 101.729 62.6818 98.8352 62.6818Z" fill="#3282B8"/>
<path d="M53.3636 62H0.5L44.3636 15.4546H60.7727C65.4545 15.4546 69.3409 16.4091 72.4318 18.3182C75.5379 20.2273 77.7273 22.9621 79 26.5227C80.2727 30.0682 80.5 34.303 79.6818 39.2273C78.8939 43.9849 77.3258 48.0682 74.9773 51.4773C72.6288 54.8712 69.6212 57.4773 65.9545 59.2955C62.2879 61.0985 58.0909 62 53.3636 62ZM47.8864 53.5682H53.9318C56.8561 53.5682 59.4167 53.0227 61.6136 51.9318C63.8258 50.8409 65.6364 49.1591 67.0455 46.8864C68.4697 44.6137 69.4773 41.7046 70.0682 38.1591C70.6288 34.7955 70.5909 32.0682 69.9545 29.9773C69.3333 27.8712 68.1288 26.3333 66.3409 25.3637C64.553 24.3788 62.2045 23.8864 59.2955 23.8864H52.8182L47.8864 53.5682Z" fill="#3282B8"/>
</svg>
